<?xml version="1.0" encoding="UTF-8"?>
<!DOCTYPE svg PUBLIC "-//W3C//DTD SVG 1.1//EN" "http://www.w3.org/Graphics/SVG/1.1/DTD/svg11.dtd">
<svg version="1.1" xmlns="http://www.w3.org/2000/svg" xmlns:xlink="http://www.w3.org/1999/xlink" x="0" y="0" width="534.904" height="168.51" viewBox="0, 0, 534.904, 168.51">
  <g id="Layer_1">
    <path d="M182.617,86.002 C174.211,83.798 169.886,78.657 169.886,71.149 C169.886,61.927 176.823,54.337 192.085,54.337 C200.082,54.337 207.755,56.458 211.996,58.744 L208.733,69.435 C204.652,66.824 197.716,64.784 191.676,64.784 C184.656,64.784 181.718,66.986 181.718,70.169 C181.718,73.189 183.759,74.413 187.758,75.556 L198.041,78.494 C208.08,81.35 212.978,85.92 212.978,93.837 C212.978,104.283 203.754,111.383 190.371,111.383 C182.29,111.383 174.374,108.608 170.783,106.568 L173.478,95.714 C177.476,98.325 183.923,100.937 190.615,100.937 C197.308,100.937 201.061,98.407 201.061,94.735 C201.061,91.715 198.123,90.246 193.145,88.859 z" fill="#4D4D4C"/>
    <path d="M234.818,65.028 L234.818,85.267 L248.12,85.267 C253.753,85.267 258.241,81.432 258.241,75.229 C258.241,68.619 253.753,65.028 248.12,65.028 z M223.393,55.071 L249.917,55.071 C260.772,55.071 270.076,61.436 270.076,75.31 C270.076,87.797 260.772,95.224 249.917,95.224 L234.818,95.224 L234.818,110.567 L223.393,110.567 z" fill="#4D4D4C"/>
    <path d="M291.046,65.028 L291.046,81.595 L305.248,81.595 C310.47,81.595 314.224,78.494 314.224,73.352 C314.224,67.884 310.47,65.028 305.248,65.028 z M279.621,55.071 L304.023,55.071 C314.958,55.071 326.14,59.478 326.14,73.107 C326.14,82.329 319.367,88.94 310.47,90.327 C315.693,95.387 321.08,101.508 326.875,101.508 C328.751,101.508 331.281,101.018 333.076,100.203 L334.22,109.261 C331.934,110.405 328.671,111.383 325.079,111.383 C312.674,111.383 303.533,95.713 296.597,90.572 L291.046,90.572 L291.046,110.567 L279.621,110.567 z" fill="#4D4D4C"/>
    <path d="M342.711,110.567 L342.711,55.071 L386.618,55.071 L386.618,65.11 L353.647,65.11 L353.647,77.106 L380.662,77.106 L380.662,87.145 L353.647,87.145 L353.647,100.529 L386.618,100.529 L386.618,110.567 z" fill="#4D4D4C"/>
    <path d="M412.779,90.98 L432.201,90.98 L422.736,66.415 z M416.043,55.07 L429.427,55.07 L450.891,110.567 L439.303,110.567 L435.058,99.467 L409.841,99.467 L405.515,110.567 L393.926,110.567 z" fill="#4D4D4C"/>
    <path d="M469.775,65.028 L469.775,100.61 L479.331,100.61 C489.532,100.61 496.632,94.326 496.632,82.9 C496.632,71.312 489.532,65.028 479.331,65.028 z M458.35,55.071 L479.82,55.071 C496.225,55.153 508.467,64.863 508.467,82.9 C508.467,100.774 496.225,110.567 479.82,110.567 L458.35,110.567 z" fill="#4D4D4C"/>
    <path d="M100.077,36.675 C96.081,36.675 92.601,38.872 90.771,42.122 C91.692,41.746 92.697,41.535 93.753,41.535 C98.11,41.535 101.642,45.067 101.642,49.424 C101.642,53.119 99.099,56.212 95.669,57.069 C97.013,57.679 98.504,58.022 100.077,58.022 C105.972,58.022 110.75,53.244 110.75,47.349 C110.75,41.454 105.972,36.675 100.077,36.675" fill="#EE6900"/>
    <path d="M145.836,60.209 C145.836,60.426 143.413,59.257 139.495,60.056 C135.578,60.636 130.165,63.185 124.187,65.789 C118.208,68.393 112.796,68.153 108.879,65.943 C104.961,63.951 102.538,59.99 102.538,60.209 C102.538,59.99 104.961,61.161 108.879,60.361 C112.796,59.781 118.208,57.233 124.187,54.628 C130.165,52.023 135.578,52.265 139.495,54.475 C143.413,56.466 145.836,60.427 145.836,60.209" fill="#EE6900"/>
    <path d="M147.009,62.527 C146.54,62.501 144.013,61.545 140.154,62.333 C138.715,62.546 137.089,63.006 135.32,63.624 C135.455,63.615 135.587,63.598 135.724,63.598 C138.888,63.598 141.453,66.163 141.453,69.327 C141.453,72.491 138.888,75.056 135.724,75.056 C135.721,75.056 135.72,75.056 135.72,75.056 C136.884,75.628 138.191,75.96 139.578,75.96 C144.426,75.96 148.356,72.03 148.356,67.182 C148.356,65.47 147.858,63.877 147.009,62.527" fill="#EE6900"/>
    <path d="M123.129,111.878 C123.384,111.389 125.631,109.153 126.663,104.647 C127.133,103.007 127.432,101.046 127.629,98.857 C127.574,99.005 127.529,99.154 127.462,99.3 C125.926,102.681 121.941,104.177 118.56,102.641 C115.18,101.105 113.684,97.119 115.22,93.739 C115.22,93.736 115.222,93.735 115.223,93.733 C114.044,94.701 113.056,95.937 112.383,97.419 C110.03,102.599 112.322,108.704 117.501,111.057 C119.331,111.888 121.274,112.129 123.129,111.878" fill="#EE6900"/>
    <path d="M52.197,130.788 C52.694,130.547 55.514,130.085 59.024,127.077 C60.378,126.038 62.1,124.639 63.56,122.996 C63.428,123.083 63.302,123.176 63.162,123.254 C59.916,125.058 55.824,123.89 54.019,120.645 C52.215,117.399 53.383,113.306 56.628,111.502 C56.631,111.5 56.633,111.499 56.635,111.499 C55.111,111.576 53.582,111.982 52.159,112.773 C47.187,115.537 45.398,121.808 48.162,126.78 C49.138,128.536 50.557,129.886 52.197,130.788" fill="#EE6900"/>
    <path d="M46.448,98.912 C47.292,98.806 50.242,98.55 54.13,96.512 C55.645,95.727 57.275,94.596 59.001,93.235 C58.855,93.297 58.715,93.367 58.564,93.418 C55.052,94.625 51.227,92.758 50.02,89.246 C48.813,85.734 50.681,81.91 54.193,80.703 C54.195,80.702 54.197,80.702 54.2,80.701 C52.686,80.509 51.11,80.641 49.57,81.17 C44.19,83.02 41.328,88.88 43.177,94.259 C43.831,96.16 44.991,97.737 46.448,98.912" fill="#EE6900"/>
    <path d="M76.588,59.148 C74.085,59.643 71.98,60.727 70.714,62.022 C70.45,61.632 70.258,61.194 70.163,60.714 C69.733,58.537 71.388,56.376 73.858,55.889 C76.303,55.406 78.628,56.743 79.092,58.88 C78.289,58.894 77.448,58.979 76.588,59.148 M124.631,75.179 C120.515,73.877 116.302,72.224 112.088,70.202 C104.956,66.78 98.639,62.709 93.421,58.373 C93.628,57.796 93.747,57.177 93.747,56.528 C93.747,53.503 91.293,51.05 88.267,51.05 C87.524,51.05 86.815,51.2 86.17,51.468 C85.891,51.177 85.596,50.87 85.261,50.52 C83.42,48.59 78.828,44.296 74.046,40.774 C70.889,38.447 68.05,36.633 66.006,35.641 C56.311,30.935 44.636,34.979 39.93,44.674 C39.417,45.729 39.028,46.812 38.719,47.904 C38.443,48.877 38.247,49.857 38.128,50.842 C37.762,53.85 38.096,56.869 39.08,59.667 C40.727,64.349 44.145,68.41 48.962,70.749 C54.011,73.2 62.396,73.014 73.353,74.116 C73.471,75.093 73.549,76.081 73.549,77.088 C73.549,87.915 60.639,97.1 50.945,100.435 C64.557,102.04 75.656,97.391 81.414,92.2 C81.096,105.196 72.795,122.505 56.914,131.442 C73.608,130.369 89.277,116.251 95.629,103.649 C101.323,92.352 110.921,87.587 112.604,87.109 C113.883,86.706 115.245,86.488 116.657,86.488 C116.671,86.488 116.685,86.488 116.699,86.488 C119.951,86.431 123.095,87.425 125.61,89.557 C130.921,94.056 131.694,102.146 127.901,108.88 C133.317,105.581 136.934,99.622 136.934,92.817 C136.934,84.719 131.811,77.822 124.631,75.179" fill="#EE6900"/>
  </g>
</svg>
